<?xml version="1.0" encoding="UTF-8"?><svg id="a" xmlns="http://www.w3.org/2000/svg" viewBox="0 0 861 646"><defs><style>.b{stroke:#000;stroke-width:17px;}.b,.c{fill:none;stroke-linecap:round;stroke-miterlimit:10;}.c{stroke:#009cea;stroke-width:9px;}</style></defs><polyline class="b" points="22 117.38 22 330.12 413.04 427.36 417.92 633.98"/><polyline class="b" points="836 137.52 809.93 277.34 549.26 291.55 549.26 633.98"/><polyline class="c" points="825.7 137.52 813.5 154.5 779.69 137.52 756.5 191.5 704.5 47.5 633.5 199.5 593.5 93.5 549.26 181.85 525.85 113.5 472 156.85 437.5 45.5 417.92 153 395.5 95.5 386.01 135.25 379.5 162.5 316.5 16.5 270.5 210.5 239.5 99.5 187.38 172.5 145.5 89.5 79.5 172.5 71.5 106.5 41.23 137.52 33.13 113.5"/></svg>