<?xml version="1.0" encoding="UTF-8"?><svg xmlns="http://www.w3.org/2000/svg" viewBox="0 0 159.88 159.75"><defs><style>.d{fill:#fff;}</style></defs><g id="a"/><g id="b"><g id="c"><path class="d" d="M136.25,23.5c-3.91-3.83-10.17-3.76-14,.14-3.77,3.85-3.77,10.01,0,13.86,23.47,23.47,23.47,61.53,0,84.99-23.47,23.47-61.53,23.47-84.99,0-23.47-23.47-23.47-61.52,0-84.99,3.83-3.91,3.76-10.17-.14-14-3.85-3.77-10.01-3.77-13.86,0-31,31-31,82,0,113s82,31,113,0c31.2-30.79,31.54-81.04,.76-112.24-.25-.25-.5-.51-.76-.76Zm-56.5,66.5c5.52,0,10-4.48,10-10V10c0-5.52-4.48-10-10-10s-10,4.48-10,10V80c0,5.52,4.48,10,10,10Z"/></g></g></svg>